<svg width="150" height="135" viewBox="0 0 150 135" fill="none" xmlns="http://www.w3.org/2000/svg">
<path d="M55.5166 0C57.8979 1.65633e-07 60.1293 0.640975 62.0488 1.75879C71.2099 6.20892 82.5473 13.2743 92 16.4189H136.957C144.352 16.4189 150.257 22.5788 149.945 29.9668L146.042 122.548C145.748 129.508 140.02 135 133.054 135H17.0332C10.0454 135 4.30707 129.476 4.04199 122.493L3.62598 111.548C3.59284 111.241 3.57102 110.93 3.55957 110.616L2.72266 87.7334L0.529297 29.9121C0.510475 29.4161 0.519937 28.9256 0.555664 28.4424L0.00878906 13.4746C-0.260117 6.11374 5.63517 0 13.001 0H55.5166Z" fill="url(#paint0_linear_157_107)"/>
<rect x="60.1984" y="32" width="67" height="80" rx="5" transform="rotate(14.9822 60.1984 32)" fill="white"/>
<rect x="70.3725" y="40.3136" width="42" height="4" rx="2" transform="rotate(14.9822 70.3725 40.3136)" fill="#E7E7E7"/>
<rect x="89.3491" y="51.748" width="27" height="4" rx="2" transform="rotate(14.9822 89.3491 51.748)" fill="#E7E7E7"/>
<rect x="65.4607" y="58.6677" width="35" height="4" rx="2" transform="rotate(14.9822 65.4607 58.6677)" fill="#E7E7E7"/>
<rect x="63.9095" y="64.4637" width="53" height="4" rx="2" transform="rotate(14.9822 63.9095 64.4637)" fill="#E7E7E7"/>
<g filter="url(#filter0_d_157_107)">
<rect x="39.5094" y="32" width="67" height="80" rx="5" transform="rotate(4.29584 39.5094 32)" fill="white"/>
</g>
<rect x="51.0487" y="38.2827" width="42" height="4" rx="2" transform="rotate(4.29584 51.0487 38.2827)" fill="#E7E7E7"/>
<rect x="71.8164" y="46" width="27" height="4" rx="2" transform="rotate(4.29584 71.8164 46)" fill="#E7E7E7"/>
<rect x="49.6254" y="57.2294" width="35" height="4" rx="2" transform="rotate(4.29584 49.6254 57.2294)" fill="#E7E7E7"/>
<rect x="49.176" y="63.2125" width="53" height="4" rx="2" transform="rotate(4.29584 49.176 63.2125)" fill="#E7E7E7"/>
<g filter="url(#filter1_d_157_107)">
<rect x="13.5168" y="33.1329" width="67" height="80" rx="5" transform="rotate(-8.69871 13.5168 33.1329)" fill="white"/>
<rect x="18.3783" y="38.459" width="42" height="4" rx="2" transform="rotate(-8.69871 18.3783 38.459)" fill="#E7E7E7"/>
<rect x="19.2857" y="44.3899" width="27" height="4" rx="2" transform="rotate(-8.69871 19.2857 44.3899)" fill="#E7E7E7"/>
<rect x="21.2518" y="57.2404" width="35" height="4" rx="2" transform="rotate(-8.69871 21.2518 57.2404)" fill="#E7E7E7"/>
<rect x="22.1592" y="63.1714" width="53" height="4" rx="2" transform="rotate(-8.69871 22.1592 63.1714)" fill="#E7E7E7"/>
</g>
<foreignObject x="-24.1832" y="36.3" width="198.4" height="124.4"><div xmlns="http://www.w3.org/1999/xhtml" style="backdrop-filter:blur(12.85px);clip-path:url(#bgblur_0_157_107_clip_path);height:100%;width:100%"></div></foreignObject><path data-figma-bg-blur-radius="25.7" d="M1.51683 62H148.517L146.029 122.534C145.743 129.5 140.012 135 133.04 135H16.9936C10.0215 135 4.2908 129.5 4.00452 122.534L1.51683 62Z" fill="#88C09C" fill-opacity="0.65"/>
<defs>
<filter id="filter0_d_157_107" x="29.8771" y="32.3602" width="80.0838" height="92.0735" filterUnits="userSpaceOnUse" color-interpolation-filters="sRGB">
<feFlood flood-opacity="0" result="BackgroundImageFix"/>
<feColorMatrix in="SourceAlpha" type="matrix" values="0 0 0 0 0 0 0 0 0 0 0 0 0 0 0 0 0 0 127 0" result="hardAlpha"/>
<feOffset dy="4"/>
<feGaussianBlur stdDeviation="2"/>
<feComposite in2="hardAlpha" operator="out"/>
<feColorMatrix type="matrix" values="0 0 0 0 0 0 0 0 0 0 0 0 0 0 0 0 0 0 0.25 0"/>
<feBlend mode="normal" in2="BackgroundImageFix" result="effect1_dropShadow_157_107"/>
<feBlend mode="normal" in="SourceGraphic" in2="effect1_dropShadow_157_107" result="shape"/>
</filter>
<filter id="filter1_d_157_107" x="11.2148" y="23.6979" width="84.9324" height="95.8169" filterUnits="userSpaceOnUse" color-interpolation-filters="sRGB">
<feFlood flood-opacity="0" result="BackgroundImageFix"/>
<feColorMatrix in="SourceAlpha" type="matrix" values="0 0 0 0 0 0 0 0 0 0 0 0 0 0 0 0 0 0 127 0" result="hardAlpha"/>
<feOffset dx="1" dy="4"/>
<feGaussianBlur stdDeviation="2"/>
<feComposite in2="hardAlpha" operator="out"/>
<feColorMatrix type="matrix" values="0 0 0 0 0 0 0 0 0 0 0 0 0 0 0 0 0 0 0.25 0"/>
<feBlend mode="normal" in2="BackgroundImageFix" result="effect1_dropShadow_157_107"/>
<feBlend mode="normal" in="SourceGraphic" in2="effect1_dropShadow_157_107" result="shape"/>
</filter>
<clipPath id="bgblur_0_157_107_clip_path" transform="translate(24.1832 -36.3)"><path d="M1.51683 62H148.517L146.029 122.534C145.743 129.5 140.012 135 133.04 135H16.9936C10.0215 135 4.2908 129.5 4.00452 122.534L1.51683 62Z"/>
</clipPath><linearGradient id="paint0_linear_157_107" x1="70" y1="-1.58931e-07" x2="72.7594" y2="97.0003" gradientUnits="userSpaceOnUse">
<stop stop-color="#02B041"/>
<stop offset="1" stop-color="#007F2E"/>
</linearGradient>
</defs>
</svg>
