<svg width="157" height="113" viewBox="0 0 157 113" fill="none" xmlns="http://www.w3.org/2000/svg">
<path d="M53.3315 0C56.4909 0 59.3762 1.12372 61.6215 2.98535C68.1245 7.02415 79.766 13.6316 84.5512 14H141.37C149.173 14 155.218 20.827 154.274 28.5732L147.445 84.5732C146.649 91.096 141.112 96 134.54 96H24.1528C17.759 95.9999 12.3141 91.3501 11.3129 85.0352L9.87249 75.9521C8.90827 74.4305 8.24612 72.6897 7.98187 70.8057L0.128351 14.8057C-0.968523 6.98447 5.10464 0 13.0024 0H53.3315Z" fill="url(#paint0_linear_180_774)"/>
<path d="M2.43532 46.0355C1.18399 38.1426 7.28341 31 15.275 31H141.37C149.174 31 155.219 37.8273 154.274 45.5737L147.445 101.574C146.65 108.096 141.112 113 134.541 113H24.153C17.7591 113 12.3145 108.351 11.3134 102.036L2.43532 46.0355Z" fill="#D9D9D9"/>
<defs>
<linearGradient id="paint0_linear_180_774" x1="77.1856" y1="0" x2="77.1856" y2="96" gradientUnits="userSpaceOnUse">
<stop stop-color="#CDCDCD"/>
<stop offset="1" stop-color="#4D4D4D"/>
</linearGradient>
</defs>
</svg>
