<svg width="92" height="113" viewBox="0 0 92 113" fill="none" xmlns="http://www.w3.org/2000/svg">
<path d="M46 0.75C46 17.482 59.3638 31.092 76 31.4902V31.5088C59.613 31.901 46.401 45.113 46.0088 61.5H45.9912C45.599 45.113 32.387 31.901 16 31.5088V31.4902C32.6362 31.092 46 17.482 46 0.75C46 0.499289 45.9972 0.249275 45.9912 0H46.0088C46.0028 0.249275 46 0.499289 46 0.75Z" fill="black"/>
<path d="M90 52C90.6697 52 91.3365 52.0113 92 52.0352V75C71.0132 75 54 92.0132 54 113H38C38 92.0132 20.9868 75 0 75V52.0352C0.66355 52.0113 1.33031 52 2 52C20.5279 52 36.7899 61.226 46 75.1133C55.2101 61.226 71.4721 52 90 52Z" fill="black"/>
</svg>
