<svg width="718" height="516" viewBox="0 0 718 516" fill="none" xmlns="http://www.w3.org/2000/svg">
<path d="M0 8C0 3.58173 3.58172 0 8 0H710C714.418 0 718 3.58172 718 8V508C718 512.418 714.418 516 710 516H8.00001C3.58173 516 0 512.418 0 508V8Z" fill="#F7F7F7"/>
<g filter="url(#filter0_d_436_42)">
<path d="M159 71C159 61.0589 167.059 53 177 53H540C549.941 53 558 61.0589 558 71V123.611C558 133.552 549.941 141.611 540 141.611H177C167.059 141.611 159 133.552 159 123.611V71Z" fill="white"/>
</g>
<rect x="227" y="78" width="230" height="13.6825" rx="6.84126" fill="#EEEEEE"/>
<rect x="227" y="103" width="289" height="13.6825" rx="6.84126" fill="#EEEEEE"/>
<g clip-path="url(#clip0_436_42)">
<path d="M184.375 96.5C184.375 98.2236 184.714 99.9303 185.374 101.523C186.034 103.115 187 104.562 188.219 105.781C189.438 107 190.885 107.966 192.477 108.626C194.07 109.286 195.776 109.625 197.5 109.625C199.224 109.625 200.93 109.286 202.523 108.626C204.115 107.966 205.562 107 206.781 105.781C208 104.562 208.966 103.115 209.626 101.523C210.286 99.9303 210.625 98.2236 210.625 96.5C210.625 94.7764 210.286 93.0697 209.626 91.4773C208.966 89.8849 208 88.438 206.781 87.2192C205.562 86.0005 204.115 85.0337 202.523 84.3741C200.93 83.7145 199.224 83.375 197.5 83.375C195.776 83.375 194.07 83.7145 192.477 84.3741C190.885 85.0337 189.438 86.0005 188.219 87.2192C187 88.438 186.034 89.8849 185.374 91.4773C184.714 93.0697 184.375 94.7764 184.375 96.5Z" stroke="#EEEEEE" stroke-width="5" stroke-linecap="round" stroke-linejoin="round"/>
</g>
<g filter="url(#filter1_d_436_42)">
<path d="M159 178C159 168.059 167.059 160 177 160H540C549.941 160 558 168.059 558 178V230.611C558 240.552 549.941 248.611 540 248.611H177C167.059 248.611 159 240.552 159 230.611V178Z" fill="white"/>
<path d="M177 162H540C548.837 162 556 169.163 556 178V230.61C556 239.447 548.837 246.61 540 246.61H177C168.163 246.61 161 239.447 161 230.61V178C161 169.163 168.163 162 177 162Z" stroke="#2E6DEA" stroke-width="4"/>
</g>
<rect x="227" y="185" width="230" height="13.6825" rx="6.84126" fill="#EEEEEE"/>
<rect x="227" y="210" width="289" height="13.6825" rx="6.84126" fill="#EEEEEE"/>
<g filter="url(#filter2_d_436_42)">
<path d="M159 285C159 275.059 167.059 267 177 267H540C549.941 267 558 275.059 558 285V337.611C558 347.552 549.941 355.611 540 355.611H177C167.059 355.611 159 347.552 159 337.611V285Z" fill="white"/>
</g>
<rect x="227" y="292" width="230" height="13.6825" rx="6.84126" fill="#EEEEEE"/>
<rect x="227" y="317" width="289" height="13.6825" rx="6.84126" fill="#EEEEEE"/>
<g clip-path="url(#clip1_436_42)">
<path d="M184.375 310.5C184.375 312.224 184.714 313.93 185.374 315.523C186.034 317.115 187 318.562 188.219 319.781C189.438 321 190.885 321.966 192.477 322.626C194.07 323.286 195.776 323.625 197.5 323.625C199.224 323.625 200.93 323.286 202.523 322.626C204.115 321.966 205.562 321 206.781 319.781C208 318.562 208.966 317.115 209.626 315.523C210.286 313.93 210.625 312.224 210.625 310.5C210.625 308.776 210.286 307.07 209.626 305.477C208.966 303.885 208 302.438 206.781 301.219C205.562 300 204.115 299.034 202.523 298.374C200.93 297.714 199.224 297.375 197.5 297.375C195.776 297.375 194.07 297.714 192.477 298.374C190.885 299.034 189.438 300 188.219 301.219C187 302.438 186.034 303.885 185.374 305.477C184.714 307.07 184.375 308.776 184.375 310.5Z" stroke="#EEEEEE" stroke-width="5" stroke-linecap="round" stroke-linejoin="round"/>
</g>
<g filter="url(#filter3_d_436_42)">
<path d="M159 392C159 382.059 167.059 374 177 374H540C549.941 374 558 382.059 558 392V444.611C558 454.552 549.941 462.611 540 462.611H177C167.059 462.611 159 454.552 159 444.611V392Z" fill="white"/>
</g>
<rect x="227" y="399" width="230" height="13.6825" rx="6.84126" fill="#EEEEEE"/>
<rect x="227" y="424" width="289" height="13.6825" rx="6.84126" fill="#EEEEEE"/>
<g clip-path="url(#clip2_436_42)">
<path d="M184.375 417.5C184.375 419.224 184.714 420.93 185.374 422.523C186.034 424.115 187 425.562 188.219 426.781C189.438 428 190.885 428.966 192.477 429.626C194.07 430.286 195.776 430.625 197.5 430.625C199.224 430.625 200.93 430.286 202.523 429.626C204.115 428.966 205.562 428 206.781 426.781C208 425.562 208.966 424.115 209.626 422.523C210.286 420.93 210.625 419.224 210.625 417.5C210.625 415.776 210.286 414.07 209.626 412.477C208.966 410.885 208 409.438 206.781 408.219C205.562 407 204.115 406.034 202.523 405.374C200.93 404.714 199.224 404.375 197.5 404.375C195.776 404.375 194.07 404.714 192.477 405.374C190.885 406.034 189.438 407 188.219 408.219C187 409.438 186.034 410.885 185.374 412.477C184.714 414.07 184.375 415.776 184.375 417.5Z" stroke="#EEEEEE" stroke-width="5" stroke-linecap="round" stroke-linejoin="round"/>
</g>
<g clip-path="url(#clip3_436_42)">
<path d="M190.209 190.871C192.971 189.276 196.181 188.631 199.345 189.034C202.51 189.438 205.455 190.868 207.728 193.106C210.002 195.343 211.48 198.264 211.934 201.422C212.389 204.579 211.796 207.799 210.246 210.587C208.696 213.375 206.274 215.578 203.352 216.858C200.43 218.138 197.169 218.425 194.068 217.674C190.968 216.924 188.199 215.177 186.186 212.702C184.173 210.228 183.028 207.161 182.924 203.973L182.917 203.5L182.924 203.028C183.005 200.549 183.716 198.132 184.99 196.005C186.265 193.878 188.061 192.111 190.209 190.871Z" fill="#2E6DEA"/>
<g clip-path="url(#clip4_436_42)">
<path d="M190 204L195 209L205 199" stroke="white" stroke-width="2" stroke-linecap="round" stroke-linejoin="round"/>
</g>
</g>
<defs>
<filter id="filter0_d_436_42" x="147.1" y="45.1" width="422.8" height="112.411" filterUnits="userSpaceOnUse" color-interpolation-filters="sRGB">
<feFlood flood-opacity="0" result="BackgroundImageFix"/>
<feColorMatrix in="SourceAlpha" type="matrix" values="0 0 0 0 0 0 0 0 0 0 0 0 0 0 0 0 0 0 127 0" result="hardAlpha"/>
<feOffset dy="4"/>
<feGaussianBlur stdDeviation="5.95"/>
<feComposite in2="hardAlpha" operator="out"/>
<feColorMatrix type="matrix" values="0 0 0 0 0 0 0 0 0 0 0 0 0 0 0 0 0 0 0.09 0"/>
<feBlend mode="normal" in2="BackgroundImageFix" result="effect1_dropShadow_436_42"/>
<feBlend mode="normal" in="SourceGraphic" in2="effect1_dropShadow_436_42" result="shape"/>
</filter>
<filter id="filter1_d_436_42" x="147.1" y="152.1" width="422.8" height="112.411" filterUnits="userSpaceOnUse" color-interpolation-filters="sRGB">
<feFlood flood-opacity="0" result="BackgroundImageFix"/>
<feColorMatrix in="SourceAlpha" type="matrix" values="0 0 0 0 0 0 0 0 0 0 0 0 0 0 0 0 0 0 127 0" result="hardAlpha"/>
<feOffset dy="4"/>
<feGaussianBlur stdDeviation="5.95"/>
<feComposite in2="hardAlpha" operator="out"/>
<feColorMatrix type="matrix" values="0 0 0 0 0 0 0 0 0 0 0 0 0 0 0 0 0 0 0.09 0"/>
<feBlend mode="normal" in2="BackgroundImageFix" result="effect1_dropShadow_436_42"/>
<feBlend mode="normal" in="SourceGraphic" in2="effect1_dropShadow_436_42" result="shape"/>
</filter>
<filter id="filter2_d_436_42" x="147.1" y="259.1" width="422.8" height="112.411" filterUnits="userSpaceOnUse" color-interpolation-filters="sRGB">
<feFlood flood-opacity="0" result="BackgroundImageFix"/>
<feColorMatrix in="SourceAlpha" type="matrix" values="0 0 0 0 0 0 0 0 0 0 0 0 0 0 0 0 0 0 127 0" result="hardAlpha"/>
<feOffset dy="4"/>
<feGaussianBlur stdDeviation="5.95"/>
<feComposite in2="hardAlpha" operator="out"/>
<feColorMatrix type="matrix" values="0 0 0 0 0 0 0 0 0 0 0 0 0 0 0 0 0 0 0.09 0"/>
<feBlend mode="normal" in2="BackgroundImageFix" result="effect1_dropShadow_436_42"/>
<feBlend mode="normal" in="SourceGraphic" in2="effect1_dropShadow_436_42" result="shape"/>
</filter>
<filter id="filter3_d_436_42" x="147.1" y="366.1" width="422.8" height="112.411" filterUnits="userSpaceOnUse" color-interpolation-filters="sRGB">
<feFlood flood-opacity="0" result="BackgroundImageFix"/>
<feColorMatrix in="SourceAlpha" type="matrix" values="0 0 0 0 0 0 0 0 0 0 0 0 0 0 0 0 0 0 127 0" result="hardAlpha"/>
<feOffset dy="4"/>
<feGaussianBlur stdDeviation="5.95"/>
<feComposite in2="hardAlpha" operator="out"/>
<feColorMatrix type="matrix" values="0 0 0 0 0 0 0 0 0 0 0 0 0 0 0 0 0 0 0.09 0"/>
<feBlend mode="normal" in2="BackgroundImageFix" result="effect1_dropShadow_436_42"/>
<feBlend mode="normal" in="SourceGraphic" in2="effect1_dropShadow_436_42" result="shape"/>
</filter>
<clipPath id="clip0_436_42">
<rect width="35" height="35" fill="white" transform="translate(180 79)"/>
</clipPath>
<clipPath id="clip1_436_42">
<rect width="35" height="35" fill="white" transform="translate(180 293)"/>
</clipPath>
<clipPath id="clip2_436_42">
<rect width="35" height="35" fill="white" transform="translate(180 400)"/>
</clipPath>
<clipPath id="clip3_436_42">
<rect width="35" height="35" fill="white" transform="translate(180 186)"/>
</clipPath>
<clipPath id="clip4_436_42">
<rect width="24" height="24" fill="white" transform="translate(185 192)"/>
</clipPath>
</defs>
</svg>
