<svg width="718" height="516" viewBox="0 0 718 516" fill="none" xmlns="http://www.w3.org/2000/svg">
<path d="M0 8C0 3.58173 3.58172 0 8 0H710C714.418 0 718 3.58172 718 8V508C718 512.418 714.418 516 710 516H8.00001C3.58173 516 0 512.418 0 508V8Z" fill="#F7F7F7"/>
<g filter="url(#filter0_d_436_2)">
<rect x="85" y="373" width="528" height="101" rx="50.5" fill="white"/>
<rect x="85.5" y="373.5" width="527" height="100" rx="50" stroke="#EEEEEE"/>
<path d="M122.286 434L129.228 414.63H132.244L139.186 434H136.456L134.87 429.45H126.602L125.016 434H122.286ZM127.408 427.11H134.064L130.372 416.476H131.1L127.408 427.11ZM146.359 434.312C144.955 434.312 143.733 433.965 142.693 433.272C141.653 432.579 140.916 431.643 140.483 430.464L142.407 429.528C142.805 430.36 143.351 431.019 144.045 431.504C144.738 431.989 145.509 432.232 146.359 432.232C147.121 432.232 147.754 432.05 148.257 431.686C148.759 431.322 149.011 430.845 149.011 430.256C149.011 429.84 148.889 429.511 148.647 429.268C148.421 429.008 148.144 428.809 147.815 428.67C147.485 428.514 147.182 428.401 146.905 428.332L144.799 427.734C143.533 427.37 142.606 426.85 142.017 426.174C141.445 425.498 141.159 424.709 141.159 423.808C141.159 422.976 141.367 422.257 141.783 421.65C142.216 421.026 142.797 420.541 143.525 420.194C144.27 419.847 145.102 419.674 146.021 419.674C147.251 419.674 148.352 419.986 149.323 420.61C150.311 421.234 151.013 422.109 151.429 423.236L149.453 424.146C149.141 423.418 148.673 422.846 148.049 422.43C147.425 421.997 146.723 421.78 145.943 421.78C145.232 421.78 144.669 421.962 144.253 422.326C143.837 422.673 143.629 423.115 143.629 423.652C143.629 424.051 143.733 424.38 143.941 424.64C144.149 424.883 144.4 425.073 144.695 425.212C144.989 425.333 145.275 425.437 145.553 425.524L147.841 426.2C148.985 426.529 149.869 427.041 150.493 427.734C151.134 428.427 151.455 429.259 151.455 430.23C151.455 431.01 151.238 431.712 150.805 432.336C150.371 432.96 149.773 433.445 149.011 433.792C148.248 434.139 147.364 434.312 146.359 434.312ZM154.62 434V414.318H157.038V427.812L156.05 427.578L163.486 419.986H166.58L161.198 425.628L166.944 434H164.084L158.832 426.408L160.34 426.33L156.258 430.594L157.038 428.826V434H154.62ZM177.72 434.312C176.802 434.312 175.987 434.147 175.276 433.818C174.583 433.471 174.037 433.003 173.638 432.414C173.24 431.807 173.04 431.114 173.04 430.334C173.04 429.589 173.196 428.921 173.508 428.332C173.838 427.725 174.34 427.214 175.016 426.798C175.71 426.382 176.576 426.087 177.616 425.914L182.816 425.056V427.084L178.162 427.864C177.261 428.02 176.602 428.306 176.186 428.722C175.788 429.138 175.588 429.649 175.588 430.256C175.588 430.828 175.814 431.305 176.264 431.686C176.732 432.067 177.313 432.258 178.006 432.258C178.89 432.258 179.653 432.076 180.294 431.712C180.953 431.331 181.464 430.819 181.828 430.178C182.21 429.537 182.4 428.826 182.4 428.046V424.484C182.4 423.721 182.114 423.106 181.542 422.638C180.988 422.153 180.251 421.91 179.332 421.91C178.535 421.91 177.824 422.118 177.2 422.534C176.594 422.933 176.143 423.47 175.848 424.146L173.742 423.054C174.002 422.413 174.418 421.841 174.99 421.338C175.562 420.818 176.23 420.411 176.992 420.116C177.755 419.821 178.552 419.674 179.384 419.674C180.459 419.674 181.404 419.882 182.218 420.298C183.033 420.697 183.666 421.26 184.116 421.988C184.584 422.699 184.818 423.531 184.818 424.484V434H182.452V431.348L182.894 431.504C182.6 432.059 182.201 432.544 181.698 432.96C181.196 433.376 180.606 433.705 179.93 433.948C179.254 434.191 178.518 434.312 177.72 434.312ZM195.821 434.312C194.695 434.312 193.663 434.061 192.727 433.558C191.809 433.055 191.098 432.345 190.595 431.426L190.933 431.01V434H188.567V414.318H190.985V423.002L190.621 422.404C191.141 421.572 191.852 420.913 192.753 420.428C193.655 419.925 194.686 419.674 195.847 419.674C197.165 419.674 198.343 419.995 199.383 420.636C200.441 421.277 201.273 422.153 201.879 423.262C202.486 424.354 202.789 425.602 202.789 427.006C202.789 428.375 202.486 429.615 201.879 430.724C201.273 431.833 200.441 432.709 199.383 433.35C198.343 433.991 197.156 434.312 195.821 434.312ZM195.639 431.972C196.523 431.972 197.312 431.755 198.005 431.322C198.699 430.889 199.236 430.299 199.617 429.554C200.016 428.791 200.215 427.942 200.215 427.006C200.215 426.035 200.016 425.186 199.617 424.458C199.236 423.713 198.699 423.123 198.005 422.69C197.312 422.239 196.523 422.014 195.639 422.014C194.755 422.014 193.958 422.231 193.247 422.664C192.554 423.097 191.999 423.695 191.583 424.458C191.185 425.203 190.985 426.053 190.985 427.006C190.985 427.942 191.185 428.791 191.583 429.554C191.999 430.299 192.554 430.889 193.247 431.322C193.958 431.755 194.755 431.972 195.639 431.972ZM212.616 434.312C211.264 434.312 210.042 434 208.95 433.376C207.858 432.735 206.991 431.859 206.35 430.75C205.709 429.641 205.388 428.384 205.388 426.98C205.388 425.576 205.7 424.328 206.324 423.236C206.965 422.144 207.832 421.277 208.924 420.636C210.016 419.995 211.247 419.674 212.616 419.674C213.968 419.674 215.19 419.995 216.282 420.636C217.374 421.26 218.232 422.118 218.856 423.21C219.497 424.302 219.818 425.559 219.818 426.98C219.818 428.401 219.489 429.667 218.83 430.776C218.171 431.868 217.296 432.735 216.204 433.376C215.129 434 213.933 434.312 212.616 434.312ZM212.616 431.972C213.483 431.972 214.263 431.755 214.956 431.322C215.667 430.889 216.221 430.291 216.62 429.528C217.036 428.765 217.244 427.916 217.244 426.98C217.244 426.027 217.036 425.186 216.62 424.458C216.221 423.713 215.667 423.123 214.956 422.69C214.263 422.239 213.483 422.014 212.616 422.014C211.732 422.014 210.935 422.239 210.224 422.69C209.531 423.123 208.976 423.713 208.56 424.458C208.144 425.186 207.936 426.027 207.936 426.98C207.936 427.916 208.144 428.765 208.56 429.528C208.976 430.291 209.531 430.889 210.224 431.322C210.935 431.755 211.732 431.972 212.616 431.972ZM227.938 434.312C226.932 434.312 226.022 434.078 225.208 433.61C224.41 433.142 223.786 432.492 223.336 431.66C222.902 430.811 222.686 429.84 222.686 428.748V419.986H225.104V428.488C225.104 429.181 225.242 429.788 225.52 430.308C225.814 430.828 226.213 431.235 226.716 431.53C227.236 431.825 227.825 431.972 228.484 431.972C229.142 431.972 229.723 431.825 230.226 431.53C230.746 431.235 231.144 430.811 231.422 430.256C231.716 429.701 231.864 429.043 231.864 428.28V419.986H234.308V434H231.942V431.27L232.332 431.504C232.002 432.388 231.439 433.081 230.642 433.584C229.862 434.069 228.96 434.312 227.938 434.312ZM243.748 434.156C242.378 434.156 241.321 433.766 240.576 432.986C239.848 432.206 239.484 431.105 239.484 429.684V422.3H236.936V419.986H237.456C238.08 419.986 238.574 419.795 238.938 419.414C239.302 419.033 239.484 418.53 239.484 417.906V416.762H241.902V419.986H245.048V422.3H241.902V429.606C241.902 430.074 241.971 430.481 242.11 430.828C242.266 431.175 242.517 431.452 242.864 431.66C243.21 431.851 243.67 431.946 244.242 431.946C244.363 431.946 244.51 431.937 244.684 431.92C244.874 431.903 245.048 431.885 245.204 431.868V434C244.978 434.052 244.727 434.087 244.45 434.104C244.172 434.139 243.938 434.156 243.748 434.156ZM258.55 434.156C257.181 434.156 256.124 433.766 255.378 432.986C254.65 432.206 254.286 431.105 254.286 429.684V422.3H251.738V419.986H252.258C252.882 419.986 253.376 419.795 253.74 419.414C254.104 419.033 254.286 418.53 254.286 417.906V416.762H256.704V419.986H259.85V422.3H256.704V429.606C256.704 430.074 256.774 430.481 256.912 430.828C257.068 431.175 257.32 431.452 257.666 431.66C258.013 431.851 258.472 431.946 259.044 431.946C259.166 431.946 259.313 431.937 259.486 431.92C259.677 431.903 259.85 431.885 260.006 431.868V434C259.781 434.052 259.53 434.087 259.252 434.104C258.975 434.139 258.741 434.156 258.55 434.156ZM263.165 434V414.318H265.583V422.716L265.141 422.482C265.488 421.598 266.042 420.913 266.805 420.428C267.585 419.925 268.495 419.674 269.535 419.674C270.54 419.674 271.433 419.899 272.213 420.35C273.01 420.801 273.634 421.425 274.085 422.222C274.553 423.019 274.787 423.921 274.787 424.926V434H272.343V425.706C272.343 424.926 272.196 424.267 271.901 423.73C271.624 423.193 271.234 422.777 270.731 422.482C270.228 422.17 269.648 422.014 268.989 422.014C268.348 422.014 267.767 422.17 267.247 422.482C266.727 422.777 266.32 423.201 266.025 423.756C265.73 424.293 265.583 424.943 265.583 425.706V434H263.165ZM278.247 434V419.986H280.665V434H278.247ZM278.247 417.75V414.63H280.665V417.75H278.247ZM289.435 434.312C288.031 434.312 286.809 433.965 285.769 433.272C284.729 432.579 283.992 431.643 283.559 430.464L285.483 429.528C285.882 430.36 286.428 431.019 287.121 431.504C287.814 431.989 288.586 432.232 289.435 432.232C290.198 432.232 290.83 432.05 291.333 431.686C291.836 431.322 292.087 430.845 292.087 430.256C292.087 429.84 291.966 429.511 291.723 429.268C291.498 429.008 291.22 428.809 290.891 428.67C290.562 428.514 290.258 428.401 289.981 428.332L287.875 427.734C286.61 427.37 285.682 426.85 285.093 426.174C284.521 425.498 284.235 424.709 284.235 423.808C284.235 422.976 284.443 422.257 284.859 421.65C285.292 421.026 285.873 420.541 286.601 420.194C287.346 419.847 288.178 419.674 289.097 419.674C290.328 419.674 291.428 419.986 292.399 420.61C293.387 421.234 294.089 422.109 294.505 423.236L292.529 424.146C292.217 423.418 291.749 422.846 291.125 422.43C290.501 421.997 289.799 421.78 289.019 421.78C288.308 421.78 287.745 421.962 287.329 422.326C286.913 422.673 286.705 423.115 286.705 423.652C286.705 424.051 286.809 424.38 287.017 424.64C287.225 424.883 287.476 425.073 287.771 425.212C288.066 425.333 288.352 425.437 288.629 425.524L290.917 426.2C292.061 426.529 292.945 427.041 293.569 427.734C294.21 428.427 294.531 429.259 294.531 430.23C294.531 431.01 294.314 431.712 293.881 432.336C293.448 432.96 292.85 433.445 292.087 433.792C291.324 434.139 290.44 434.312 289.435 434.312ZM302.19 434V419.986H304.556V422.716L304.166 422.482C304.513 421.598 305.068 420.913 305.83 420.428C306.61 419.925 307.52 419.674 308.56 419.674C309.566 419.674 310.458 419.899 311.238 420.35C312.036 420.801 312.66 421.425 313.11 422.222C313.578 423.019 313.812 423.921 313.812 424.926V434H311.368V425.706C311.368 424.926 311.23 424.267 310.952 423.73C310.675 423.193 310.276 422.777 309.756 422.482C309.254 422.17 308.673 422.014 308.014 422.014C307.356 422.014 306.766 422.17 306.246 422.482C305.744 422.777 305.345 423.201 305.05 423.756C304.756 424.293 304.608 424.943 304.608 425.706V434H302.19ZM323.928 434.312C322.576 434.312 321.354 434 320.262 433.376C319.17 432.735 318.304 431.859 317.662 430.75C317.021 429.641 316.7 428.384 316.7 426.98C316.7 425.576 317.012 424.328 317.636 423.236C318.278 422.144 319.144 421.277 320.236 420.636C321.328 419.995 322.559 419.674 323.928 419.674C325.28 419.674 326.502 419.995 327.594 420.636C328.686 421.26 329.544 422.118 330.168 423.21C330.81 424.302 331.13 425.559 331.13 426.98C331.13 428.401 330.801 429.667 330.142 430.776C329.484 431.868 328.608 432.735 327.516 433.376C326.442 434 325.246 434.312 323.928 434.312ZM323.928 431.972C324.795 431.972 325.575 431.755 326.268 431.322C326.979 430.889 327.534 430.291 327.932 429.528C328.348 428.765 328.556 427.916 328.556 426.98C328.556 426.027 328.348 425.186 327.932 424.458C327.534 423.713 326.979 423.123 326.268 422.69C325.575 422.239 324.795 422.014 323.928 422.014C323.044 422.014 322.247 422.239 321.536 422.69C320.843 423.123 320.288 423.713 319.872 424.458C319.456 425.186 319.248 426.027 319.248 426.98C319.248 427.916 319.456 428.765 319.872 429.528C320.288 430.291 320.843 430.889 321.536 431.322C322.247 431.755 323.044 431.972 323.928 431.972ZM339.724 434.156C338.355 434.156 337.298 433.766 336.552 432.986C335.824 432.206 335.46 431.105 335.46 429.684V422.3H332.912V419.986H333.432C334.056 419.986 334.55 419.795 334.914 419.414C335.278 419.033 335.46 418.53 335.46 417.906V416.762H337.878V419.986H341.024V422.3H337.878V429.606C337.878 430.074 337.948 430.481 338.086 430.828C338.242 431.175 338.494 431.452 338.84 431.66C339.187 431.851 339.646 431.946 340.218 431.946C340.34 431.946 340.487 431.937 340.66 431.92C340.851 431.903 341.024 431.885 341.18 431.868V434C340.955 434.052 340.704 434.087 340.426 434.104C340.149 434.139 339.915 434.156 339.724 434.156ZM350.406 434.312C349.054 434.312 347.849 433.991 346.792 433.35C345.735 432.709 344.903 431.833 344.296 430.724C343.689 429.597 343.386 428.341 343.386 426.954C343.386 425.55 343.681 424.302 344.27 423.21C344.877 422.118 345.691 421.26 346.714 420.636C347.754 419.995 348.915 419.674 350.198 419.674C351.238 419.674 352.157 419.865 352.954 420.246C353.769 420.61 354.453 421.113 355.008 421.754C355.58 422.378 356.013 423.097 356.308 423.912C356.62 424.709 356.776 425.541 356.776 426.408C356.776 426.599 356.759 426.815 356.724 427.058C356.707 427.283 356.681 427.5 356.646 427.708H345.154V425.628H355.242L354.098 426.564C354.254 425.663 354.167 424.857 353.838 424.146C353.509 423.435 353.023 422.872 352.382 422.456C351.741 422.04 351.013 421.832 350.198 421.832C349.383 421.832 348.638 422.04 347.962 422.456C347.286 422.872 346.757 423.47 346.376 424.25C346.012 425.013 345.865 425.923 345.934 426.98C345.865 428.003 346.021 428.904 346.402 429.684C346.801 430.447 347.355 431.045 348.066 431.478C348.794 431.894 349.583 432.102 350.432 432.102C351.368 432.102 352.157 431.885 352.798 431.452C353.439 431.019 353.959 430.464 354.358 429.788L356.386 430.828C356.109 431.469 355.675 432.059 355.086 432.596C354.514 433.116 353.829 433.532 353.032 433.844C352.252 434.156 351.377 434.312 350.406 434.312Z" fill="#B4B4B4"/>
<rect x="528" y="389" width="70" height="70" rx="35" fill="#2E6DEA"/>
<g clip-path="url(#clip0_436_2)">
<path d="M563.5 413.125V435.875" stroke="white" stroke-width="3" stroke-linecap="round" stroke-linejoin="round"/>
<path d="M573.25 422.875L563.5 413.125" stroke="white" stroke-width="3" stroke-linecap="round" stroke-linejoin="round"/>
<path d="M553.75 422.875L563.5 413.125" stroke="white" stroke-width="3" stroke-linecap="round" stroke-linejoin="round"/>
</g>
</g>
<g filter="url(#filter1_d_436_2)">
<path d="M214 93C214 83.0589 222.059 75 232 75H595C604.941 75 613 83.0589 613 93V211H232C222.059 211 214 202.941 214 193V93Z" fill="white"/>
</g>
<rect x="248" y="115" width="230" height="21" rx="10.5" fill="#EEEEEE"/>
<rect x="248" y="149" width="289" height="21" rx="10.5" fill="#EEEEEE"/>
<circle cx="128.5" cy="321.5" r="8.5" fill="#D9D9D9"/>
<circle cx="155.5" cy="307.5" r="8.5" fill="#D9D9D9"/>
<circle cx="182.5" cy="321.5" r="8.5" fill="#D9D9D9"/>
<defs>
<filter id="filter0_d_436_2" x="64.5" y="356.5" width="569" height="142" filterUnits="userSpaceOnUse" color-interpolation-filters="sRGB">
<feFlood flood-opacity="0" result="BackgroundImageFix"/>
<feColorMatrix in="SourceAlpha" type="matrix" values="0 0 0 0 0 0 0 0 0 0 0 0 0 0 0 0 0 0 127 0" result="hardAlpha"/>
<feOffset dy="4"/>
<feGaussianBlur stdDeviation="10.25"/>
<feComposite in2="hardAlpha" operator="out"/>
<feColorMatrix type="matrix" values="0 0 0 0 0 0 0 0 0 0 0 0 0 0 0 0 0 0 0.1 0"/>
<feBlend mode="normal" in2="BackgroundImageFix" result="effect1_dropShadow_436_2"/>
<feBlend mode="normal" in="SourceGraphic" in2="effect1_dropShadow_436_2" result="shape"/>
</filter>
<filter id="filter1_d_436_2" x="202.1" y="67.1" width="422.8" height="159.8" filterUnits="userSpaceOnUse" color-interpolation-filters="sRGB">
<feFlood flood-opacity="0" result="BackgroundImageFix"/>
<feColorMatrix in="SourceAlpha" type="matrix" values="0 0 0 0 0 0 0 0 0 0 0 0 0 0 0 0 0 0 127 0" result="hardAlpha"/>
<feOffset dy="4"/>
<feGaussianBlur stdDeviation="5.95"/>
<feComposite in2="hardAlpha" operator="out"/>
<feColorMatrix type="matrix" values="0 0 0 0 0 0 0 0 0 0 0 0 0 0 0 0 0 0 0.09 0"/>
<feBlend mode="normal" in2="BackgroundImageFix" result="effect1_dropShadow_436_2"/>
<feBlend mode="normal" in="SourceGraphic" in2="effect1_dropShadow_436_2" result="shape"/>
</filter>
<clipPath id="clip0_436_2">
<rect width="39" height="39" fill="white" transform="translate(544 405)"/>
</clipPath>
</defs>
</svg>
