<svg width="718" height="516" viewBox="0 0 718 516" fill="none" xmlns="http://www.w3.org/2000/svg">
<path d="M0 8C0 3.58173 3.58172 0 8 0H710C714.418 0 718 3.58172 718 8V508C718 512.418 714.418 516 710 516H8.00001C3.58173 516 0 512.418 0 508V8Z" fill="#F7F7F7"/>
<path d="M213.615 197.578C212.843 186.033 221.999 176.244 233.57 176.244H475.617C487.223 176.244 496.392 186.09 495.566 197.666L483.855 361.9C483.108 372.367 474.399 380.477 463.905 380.477H244.55C234.022 380.477 225.296 372.316 224.594 361.811L213.615 197.578Z" fill="#0C317A"/>
<g filter="url(#filter0_d_423_543)">
<path d="M372.89 85.2135C375.796 75.7067 385.859 70.3562 395.366 73.2628L506.137 107.129C515.643 110.036 520.994 120.099 518.087 129.605L471.1 283.291C468.194 292.798 458.131 298.148 448.624 295.242L337.853 261.375C328.347 258.469 322.996 248.406 325.903 238.899L372.89 85.2135Z" fill="white"/>
</g>
<rect x="380.48" y="91.0654" width="124.193" height="18.6695" rx="9.33476" transform="rotate(17.0002 380.48 91.0654)" fill="#EEEEEE"/>
<rect x="371.462" y="120.563" width="76.1457" height="18.6695" rx="9.33476" transform="rotate(17.0002 371.462 120.563)" fill="#EEEEEE"/>
<rect x="364.169" y="147.193" width="131.498" height="18.6695" rx="9.33476" transform="rotate(17.0002 364.169 147.193)" fill="#EEEEEE"/>
<rect x="350.706" y="194.005" width="64.1257" height="18.6695" rx="9.33476" transform="rotate(17.0002 350.706 194.005)" fill="#EEEEEE"/>
<rect x="340.911" y="223.265" width="92.5358" height="18.6695" rx="9.33476" transform="rotate(17.0002 340.911 223.265)" fill="#EEEEEE"/>
<g filter="url(#filter1_d_423_543)">
<path d="M217.597 151.679C214.16 142.351 218.936 132.003 228.264 128.566L336.953 88.5194C346.282 85.0825 356.63 89.8582 360.067 99.1863L415.628 249.984C419.065 259.312 414.289 269.66 404.961 273.097L296.272 313.144C286.944 316.581 276.595 311.805 273.159 302.477L217.597 151.679Z" fill="white"/>
</g>
<rect x="227.182" y="151.747" width="71.8112" height="18.6695" rx="9.33476" transform="rotate(-20.2263 227.182 151.747)" fill="#EEEEEE"/>
<rect x="237.846" y="180.69" width="120.134" height="18.6695" rx="9.33476" transform="rotate(-20.2263 237.846 180.69)" fill="#EEEEEE"/>
<rect x="248.148" y="206.306" width="131.498" height="18.6695" rx="9.33476" transform="rotate(-20.2263 248.148 206.306)" fill="#EEEEEE"/>
<rect x="265.748" y="251.725" width="64.1257" height="18.6695" rx="9.33476" transform="rotate(-20.2263 265.748 251.725)" fill="#EEEEEE"/>
<rect x="275.65" y="280.949" width="92.5358" height="18.6695" rx="9.33476" transform="rotate(-20.2263 275.65 280.949)" fill="#EEEEEE"/>
<g filter="url(#filter2_d_423_543)">
<path d="M309.916 111.197C311.819 101.439 321.271 95.0722 331.028 96.9751L444.719 119.148C454.476 121.051 460.843 130.503 458.94 140.26L428.178 297.997C426.275 307.754 416.822 314.121 407.065 312.218L293.375 290.046C283.617 288.143 277.25 278.69 279.153 268.933L309.916 111.197Z" fill="white"/>
</g>
<rect x="318.073" y="116.228" width="124.193" height="18.6695" rx="9.33476" transform="rotate(11.0357 318.073 116.228)" fill="#EEEEEE"/>
<rect x="312.169" y="146.503" width="76.1457" height="18.6695" rx="9.33476" transform="rotate(11.0357 312.169 146.503)" fill="#EEEEEE"/>
<rect x="307.684" y="173.746" width="131.498" height="18.6695" rx="9.33476" transform="rotate(11.0357 307.684 173.746)" fill="#EEEEEE"/>
<rect x="299.157" y="221.704" width="64.1257" height="18.6695" rx="9.33476" transform="rotate(11.0357 299.157 221.704)" fill="#EEEEEE"/>
<rect x="292.456" y="251.823" width="92.5358" height="18.6695" rx="9.33476" transform="rotate(11.0357 292.456 251.823)" fill="#EEEEEE"/>
<g filter="url(#filter3_d_423_543)">
<path d="M297.127 208.79C294.321 199.253 299.778 189.247 309.315 186.441L420.439 153.752C429.976 150.947 439.982 156.403 442.787 165.941L488.141 320.116C490.947 329.653 485.49 339.659 475.953 342.464L364.829 375.154C355.292 377.959 345.286 372.502 342.481 362.965L297.127 208.79Z" fill="white"/>
</g>
<rect x="306.685" y="209.498" width="124.193" height="18.6695" rx="9.33476" transform="rotate(-16.3923 306.685 209.498)" fill="#EEEEEE"/>
<rect x="315.39" y="239.089" width="76.1457" height="18.6695" rx="9.33476" transform="rotate(-16.3923 315.39 239.089)" fill="#EEEEEE"/>
<rect x="323.957" y="265.336" width="131.498" height="18.6695" rx="9.33476" transform="rotate(-16.3923 323.957 265.336)" fill="#EEEEEE"/>
<rect x="338.48" y="311.831" width="64.1257" height="18.6695" rx="9.33476" transform="rotate(-16.3923 338.48 311.831)" fill="#EEEEEE"/>
<rect x="346.407" y="341.652" width="92.5358" height="18.6695" rx="9.33476" transform="rotate(-16.3923 346.407 341.652)" fill="#EEEEEE"/>
<g filter="url(#filter4_d_423_543)">
<path d="M316.262 200.752C324.046 200.752 330.791 205.199 334.096 211.691L334.219 211.14C339.325 216.56 353.621 231.465 362.812 231.466H493.075C504.832 231.466 514.053 241.557 512.994 253.266L500.273 393.934C499.341 404.24 490.702 412.133 480.354 412.134H229.034C218.644 412.133 209.984 404.176 209.106 393.823L197.18 253.155C197.062 251.763 197.09 250.394 197.249 249.062L195.067 222.382C194.115 210.732 203.312 200.752 215.001 200.752H316.262Z" fill="#2E6DEA"/>
</g>
<defs>
<filter id="filter0_d_423_543" x="313.211" y="64.5714" width="217.568" height="247.362" filterUnits="userSpaceOnUse" color-interpolation-filters="sRGB">
<feFlood flood-opacity="0" result="BackgroundImageFix"/>
<feColorMatrix in="SourceAlpha" type="matrix" values="0 0 0 0 0 0 0 0 0 0 0 0 0 0 0 0 0 0 127 0" result="hardAlpha"/>
<feOffset dy="4"/>
<feGaussianBlur stdDeviation="5.95"/>
<feComposite in2="hardAlpha" operator="out"/>
<feColorMatrix type="matrix" values="0 0 0 0 0 0 0 0 0 0 0 0 0 0 0 0 0 0 0.09 0"/>
<feBlend mode="normal" in2="BackgroundImageFix" result="effect1_dropShadow_423_543"/>
<feBlend mode="normal" in="SourceGraphic" in2="effect1_dropShadow_423_543" result="shape"/>
</filter>
<filter id="filter1_d_423_543" x="204.582" y="79.5045" width="224.061" height="250.654" filterUnits="userSpaceOnUse" color-interpolation-filters="sRGB">
<feFlood flood-opacity="0" result="BackgroundImageFix"/>
<feColorMatrix in="SourceAlpha" type="matrix" values="0 0 0 0 0 0 0 0 0 0 0 0 0 0 0 0 0 0 127 0" result="hardAlpha"/>
<feOffset dy="4"/>
<feGaussianBlur stdDeviation="5.95"/>
<feComposite in2="hardAlpha" operator="out"/>
<feColorMatrix type="matrix" values="0 0 0 0 0 0 0 0 0 0 0 0 0 0 0 0 0 0 0.09 0"/>
<feBlend mode="normal" in2="BackgroundImageFix" result="effect1_dropShadow_423_543"/>
<feBlend mode="normal" in="SourceGraphic" in2="effect1_dropShadow_423_543" result="shape"/>
</filter>
<filter id="filter2_d_423_543" x="266.916" y="86.7389" width="204.26" height="239.716" filterUnits="userSpaceOnUse" color-interpolation-filters="sRGB">
<feFlood flood-opacity="0" result="BackgroundImageFix"/>
<feColorMatrix in="SourceAlpha" type="matrix" values="0 0 0 0 0 0 0 0 0 0 0 0 0 0 0 0 0 0 127 0" result="hardAlpha"/>
<feOffset dy="2"/>
<feGaussianBlur stdDeviation="5.95"/>
<feComposite in2="hardAlpha" operator="out"/>
<feColorMatrix type="matrix" values="0 0 0 0 0 0 0 0 0 0 0 0 0 0 0 0 0 0 0.09 0"/>
<feBlend mode="normal" in2="BackgroundImageFix" result="effect1_dropShadow_423_543"/>
<feBlend mode="normal" in="SourceGraphic" in2="effect1_dropShadow_423_543" result="shape"/>
</filter>
<filter id="filter3_d_423_543" x="284.491" y="145.116" width="216.287" height="246.674" filterUnits="userSpaceOnUse" color-interpolation-filters="sRGB">
<feFlood flood-opacity="0" result="BackgroundImageFix"/>
<feColorMatrix in="SourceAlpha" type="matrix" values="0 0 0 0 0 0 0 0 0 0 0 0 0 0 0 0 0 0 127 0" result="hardAlpha"/>
<feOffset dy="4"/>
<feGaussianBlur stdDeviation="5.95"/>
<feComposite in2="hardAlpha" operator="out"/>
<feColorMatrix type="matrix" values="0 0 0 0 0 0 0 0 0 0 0 0 0 0 0 0 0 0 0.09 0"/>
<feBlend mode="normal" in2="BackgroundImageFix" result="effect1_dropShadow_423_543"/>
<feBlend mode="normal" in="SourceGraphic" in2="effect1_dropShadow_423_543" result="shape"/>
</filter>
<filter id="filter4_d_423_543" x="173.7" y="183.452" width="360.677" height="253.982" filterUnits="userSpaceOnUse" color-interpolation-filters="sRGB">
<feFlood flood-opacity="0" result="BackgroundImageFix"/>
<feColorMatrix in="SourceAlpha" type="matrix" values="0 0 0 0 0 0 0 0 0 0 0 0 0 0 0 0 0 0 127 0" result="hardAlpha"/>
<feOffset dy="4"/>
<feGaussianBlur stdDeviation="10.65"/>
<feComposite in2="hardAlpha" operator="out"/>
<feColorMatrix type="matrix" values="0 0 0 0 0 0 0 0 0 0 0 0 0 0 0 0 0 0 0.18 0"/>
<feBlend mode="normal" in2="BackgroundImageFix" result="effect1_dropShadow_423_543"/>
<feBlend mode="normal" in="SourceGraphic" in2="effect1_dropShadow_423_543" result="shape"/>
</filter>
</defs>
</svg>
