<svg width="718" height="516" viewBox="0 0 718 516" fill="none" xmlns="http://www.w3.org/2000/svg">
<g clip-path="url(#clip0_423_578)">
<path d="M0 8C0 3.58173 3.58172 0 8 0H710C714.418 0 718 3.58172 718 8V508C718 512.418 714.418 516 710 516H8.00001C3.58173 516 0 512.418 0 508V8Z" fill="#F7F7F7"/>
<g filter="url(#filter0_d_423_578)">
<path d="M718 88.0381C676.907 113.879 614.681 153.113 561.319 186.953C534.48 203.974 509.882 219.63 491.344 231.532C472.821 243.424 460.318 251.586 457.695 253.604C452.397 257.679 449.101 263.355 447.13 268.767C445.159 274.177 444.5 279.36 444.5 282.5V351H272.5V279.5C272.5 276.36 271.841 271.177 269.87 265.767C267.899 260.355 264.603 254.679 259.305 250.604C256.682 248.586 244.179 240.424 225.656 228.532C207.118 216.63 182.52 200.974 155.681 183.953C102.001 149.911 39.3503 110.411 -1.7334 84.5771L-2.28125 84.2324L-2.47656 84.8486L-22.4766 147.849L-22.5059 147.939L-22.499 148.035L-8.13379 351H-24V0H718V88.0381Z" fill="white"/>
</g>
<g filter="url(#filter1_dii_423_578)">
<circle cx="358.5" cy="353.5" r="86.5" fill="#2E6DEA"/>
</g>
<path d="M719 88L774 -50.5L293.5 -70L-22.5 -23L-1 83.5" stroke="black"/>
<rect x="347" y="63" width="71" height="71" rx="35.5" fill="#EEEEEE"/>
<g clip-path="url(#clip1_423_578)">
<path d="M383 116.198C382.052 116.198 381.283 115.429 381.283 114.481V102.588C381.283 101.64 382.052 100.871 383 100.871C383.948 100.871 384.716 101.64 384.716 102.588V114.481C384.716 115.429 383.948 116.198 383 116.198Z" fill="#00558A"/>
<path d="M383 100.871C382.052 100.871 381.283 101.64 381.283 102.588V114.481C381.283 115.429 382.052 116.197 383 116.197V100.871Z" fill="#5A88A6"/>
<path d="M376.798 107.186V116.23C376.798 117.206 377.592 118 378.568 118H387.432C388.408 118 389.202 117.206 389.202 116.23V107.186H376.798Z" fill="#003C61"/>
<path d="M383 107.186H376.798V116.23C376.798 117.206 377.592 118 378.568 118H383V107.186Z" fill="#0066A6"/>
<path d="M383 102.904C379.415 102.904 376.509 99.9972 376.509 96.4121V86.4915C376.509 82.9064 379.415 80 383 80C386.586 80 389.492 82.9064 389.492 86.4915V96.412C389.492 99.9973 386.586 102.904 383 102.904Z" fill="#5BBBED"/>
<path d="M383 80C379.415 80 376.509 82.9064 376.509 86.4915V96.412C376.509 99.9972 379.415 102.904 383 102.904V80Z" fill="#A6D9F3"/>
<path d="M385.103 91.4519C385.103 92.163 385.679 92.7394 386.39 92.7394H389.491V90.1646H386.39C385.679 90.1645 385.103 90.7409 385.103 91.4519Z" fill="#00558A"/>
<path d="M389.491 96.412V94.2842H386.39C385.679 94.2842 385.103 94.8606 385.103 95.5717C385.103 96.2827 385.679 96.8591 386.39 96.8591H389.474C389.484 96.7111 389.491 96.5624 389.491 96.412Z" fill="#00558A"/>
<path d="M385.103 87.332C385.103 88.043 385.679 88.6195 386.39 88.6195H389.491V86.4915C389.491 86.3411 389.484 86.1924 389.474 86.0444H386.39C385.679 86.0446 385.103 86.6209 385.103 87.332Z" fill="#00558A"/>
<path d="M380.898 95.5717C380.898 94.8606 380.321 94.2842 379.61 94.2842H376.509V96.412C376.509 96.5624 376.516 96.7111 376.526 96.8591H379.61C380.321 96.8591 380.898 96.2827 380.898 95.5717Z" fill="#5A88A6"/>
<path d="M380.898 91.452C380.898 90.741 380.321 90.1646 379.61 90.1646H376.509V92.7394H379.61C380.321 92.7394 380.898 92.163 380.898 91.452Z" fill="#5A88A6"/>
<path d="M379.61 86.0447H376.526C376.516 86.1926 376.509 86.3413 376.509 86.4918V88.6195H379.61C380.321 88.6195 380.898 88.0431 380.898 87.3321C380.898 86.6211 380.321 86.0447 379.61 86.0447Z" fill="#5A88A6"/>
<path d="M383 110.189C379.091 110.189 375.445 108.085 373.485 104.698C373.01 103.877 373.291 102.827 374.111 102.352C374.932 101.878 375.982 102.158 376.457 102.978C377.805 105.309 380.312 106.756 383 106.756C385.688 106.756 388.195 105.309 389.543 102.978C390.018 102.158 391.068 101.877 391.889 102.352C392.709 102.827 392.99 103.877 392.515 104.698C390.555 108.085 386.909 110.189 383 110.189Z" fill="#C27526"/>
<path d="M383 106.756C380.312 106.756 377.805 105.309 376.457 102.978C375.982 102.158 374.932 101.877 374.111 102.352C373.291 102.827 373.01 103.877 373.485 104.698C375.445 108.085 379.091 110.189 383 110.189V106.756Z" fill="#F7DC4D"/>
</g>
<rect x="240" width="71" height="71" rx="35.5" fill="#EEEEEE"/>
<g clip-path="url(#clip2_423_578)">
<path d="M273.946 48.8036C273.946 48.4387 274.077 48.0878 274.31 47.8111C274.338 47.7779 274.367 47.7452 274.398 47.7143L282.162 39.9494L283.703 38.4088L285.244 36.8683V28.8505C285.222 29.6828 284.543 30.3513 283.705 30.3513C283.704 30.3513 283.704 30.3513 283.703 30.3513H282.162H273.433C272.582 30.3513 271.892 29.6615 271.892 28.8107V20.0811V18.5406C271.892 17.9176 272.267 17.3558 272.843 17.1174C273.042 17.035 273.252 16.9978 273.458 17.0013C273.45 17.0011 273.441 17 273.433 17H259.054C258.203 17 257.514 17.6898 257.514 18.5406V49.3517C257.514 50.2024 258.203 50.8922 259.054 50.8922H273.946V49.3517V48.8036H273.946ZM265.216 34.4597H277.541C278.392 34.4597 279.081 35.1495 279.081 36.0002C279.081 36.851 278.392 37.5408 277.541 37.5408H265.216C264.366 37.5408 263.676 36.851 263.676 36.0002C263.676 35.1494 264.366 34.4597 265.216 34.4597ZM265.216 43.7029C264.366 43.7029 263.676 43.0132 263.676 42.1624C263.676 41.3116 264.366 40.6218 265.216 40.6218H277.541C278.392 40.6218 279.081 41.3116 279.081 42.1624C279.081 43.0132 278.392 43.7029 277.541 43.7029H265.216Z" fill="#69A0D9"/>
<path d="M284.8 27.7299C284.797 27.7272 284.795 27.724 284.792 27.7212L274.521 17.4512L284.745 27.6749C284.764 27.6922 284.781 27.7115 284.8 27.7299Z" fill="#D6D5D8"/>
<path d="M279.081 42.1624C279.081 41.3116 278.392 40.6218 277.541 40.6218H265.216C264.366 40.6218 263.676 41.3116 263.676 42.1624C263.676 43.0132 264.366 43.7029 265.216 43.7029H277.541C278.392 43.7029 279.081 43.0132 279.081 42.1624Z" fill="#4C8DD0"/>
<path d="M265.216 37.5408H277.541C278.392 37.5408 279.081 36.851 279.081 36.0003C279.081 35.1495 278.392 34.4597 277.541 34.4597H265.216C264.366 34.4597 263.676 35.1495 263.676 36.0003C263.676 36.851 264.366 37.5408 265.216 37.5408Z" fill="#4C8DD0"/>
<path d="M271.892 18.5405V20.0811V28.8106C271.892 29.6614 272.581 30.3512 273.432 30.3512H282.162H283.702C283.703 30.3512 283.704 30.3512 283.705 30.3512C284.542 30.3512 285.222 29.6826 285.243 28.8504C285.243 28.837 285.245 28.824 285.245 28.8106C285.245 28.442 285.114 28.105 284.899 27.8398C284.896 27.8368 284.893 27.8336 284.891 27.8305C284.862 27.7957 284.832 27.7623 284.8 27.7299C284.782 27.7115 284.764 27.6922 284.745 27.6748L274.521 17.4511C274.489 17.4182 274.454 17.3875 274.419 17.358C274.409 17.35 274.399 17.3425 274.389 17.3347C274.362 17.3128 274.333 17.2918 274.305 17.272C274.295 17.2653 274.285 17.2581 274.274 17.2515C274.236 17.2268 274.198 17.2031 274.158 17.1818C274.158 17.1818 274.158 17.1816 274.157 17.1814C274.117 17.1598 274.075 17.1405 274.033 17.1225C274.022 17.1179 274.011 17.1138 274 17.1094C273.968 17.0968 273.935 17.0851 273.903 17.0747C273.89 17.0706 273.878 17.0664 273.865 17.0627C273.824 17.0507 273.783 17.04 273.741 17.0314C273.738 17.0309 273.736 17.0301 273.733 17.0296C273.689 17.0208 273.645 17.0146 273.6 17.0098C273.587 17.0083 273.573 17.0074 273.559 17.0062C273.526 17.0035 273.492 17.0017 273.458 17.0012C273.251 16.9977 273.042 17.0347 272.843 17.1173C272.267 17.3557 271.892 17.9175 271.892 18.5405Z" fill="#4C8DD0"/>
<path d="M294.036 39.5666L291.826 37.3565L289.38 34.9107C288.778 34.3091 287.803 34.3091 287.201 34.9107L285.243 36.8684L283.703 38.409L282.162 39.9495L274.398 47.7145C274.367 47.7454 274.338 47.7781 274.31 47.8112C274.077 48.0879 273.946 48.4388 273.946 48.8038V49.3518V50.8924V53.4597C273.946 53.9451 274.171 54.3775 274.522 54.6598C274.786 54.8723 275.121 55.0002 275.487 55.0002H280.143C280.551 55.0002 280.943 54.8378 281.232 54.549L294.036 41.7453C294.325 41.4564 294.487 41.0646 294.487 40.656C294.487 40.2473 294.325 39.8554 294.036 39.5666Z" fill="#F4D944"/>
<path d="M289.38 34.9107C288.778 34.3091 287.803 34.3091 287.201 34.9107L285.243 36.8684L283.703 38.409L282.162 39.9495L274.398 47.7145C274.367 47.7454 274.338 47.7781 274.31 47.8112C274.077 48.0879 273.946 48.4388 273.946 48.8038V49.3518V50.8924V53.4597C273.946 53.9451 274.171 54.3775 274.522 54.6598L291.826 37.3565L289.38 34.9107Z" fill="#F1CC30"/>
</g>
<rect x="285" y="175" width="71" height="71" rx="35.5" fill="#EEEEEE"/>
<path fill-rule="evenodd" clip-rule="evenodd" d="M317.077 215.964L317.075 205.211L327.342 210.606L317.077 215.964ZM339.62 203.348C339.62 203.348 339.248 200.711 338.11 199.55C336.664 198.025 335.045 198.018 334.302 197.929C328.985 197.542 321.008 197.542 321.008 197.542H320.992C320.992 197.542 313.015 197.542 307.698 197.929C306.954 198.018 305.336 198.025 303.889 199.55C302.751 200.711 302.38 203.348 302.38 203.348C302.38 203.348 302 206.445 302 209.542V212.445C302 215.543 302.38 218.639 302.38 218.639C302.38 218.639 302.751 221.276 303.889 222.437C305.336 223.962 307.234 223.914 308.08 224.073C311.12 224.368 321 224.458 321 224.458C321 224.458 328.985 224.446 334.302 224.059C335.045 223.969 336.664 223.962 338.11 222.437C339.248 221.276 339.62 218.639 339.62 218.639C339.62 218.639 340 215.543 340 212.445V209.542C340 206.445 339.62 203.348 339.62 203.348Z" fill="#CE1312"/>
<rect x="159" y="89" width="71" height="71" rx="35.5" fill="#EEEEEE"/>
<path fill-rule="evenodd" clip-rule="evenodd" d="M184.176 125C184.176 123.793 184.377 122.636 184.734 121.551L178.473 116.77C177.253 119.248 176.565 122.039 176.565 125C176.565 127.958 177.252 130.748 178.471 133.224L184.728 128.433C184.374 127.353 184.176 126.201 184.176 125Z" fill="#FBBC05"/>
<path fill-rule="evenodd" clip-rule="evenodd" d="M195.17 114.022C197.792 114.022 200.159 114.951 202.02 116.471L207.432 111.067C204.134 108.195 199.906 106.422 195.17 106.422C187.818 106.422 181.499 110.627 178.474 116.77L184.735 121.551C186.177 117.172 190.29 114.022 195.17 114.022Z" fill="#EB4335"/>
<path fill-rule="evenodd" clip-rule="evenodd" d="M195.17 135.978C190.29 135.978 186.177 132.828 184.735 128.448L178.474 133.229C181.499 139.373 187.818 143.578 195.17 143.578C199.708 143.578 204.04 141.966 207.291 138.947L201.348 134.353C199.671 135.409 197.56 135.978 195.17 135.978Z" fill="#34A853"/>
<path fill-rule="evenodd" clip-rule="evenodd" d="M212.928 125C212.928 123.902 212.759 122.72 212.506 121.622H195.17V128.8H205.149C204.65 131.247 203.291 133.128 201.348 134.353L207.291 138.948C210.707 135.777 212.928 131.055 212.928 125Z" fill="#4285F4"/>
<rect x="471" y="13" width="71" height="71" rx="35.5" fill="#EEEEEE"/>
<g clip-path="url(#clip3_423_578)">
<path d="M519.052 51.834C516.682 51.834 513.715 52.2475 512.745 52.393C508.728 48.1983 507.585 45.8139 507.328 45.1782C507.676 44.2831 508.888 40.8829 509.061 36.5157C509.146 34.3292 508.684 32.6955 507.687 31.6598C506.693 30.6259 505.489 30.5454 505.144 30.5454C503.934 30.5454 501.903 31.1575 501.903 35.2561C501.903 38.8123 503.561 42.5858 504.02 43.5608C501.605 50.5918 499.012 55.4049 498.462 56.3949C488.759 60.0481 488 63.5805 488 64.5816C488 66.3806 489.281 67.4546 491.427 67.4546C496.641 67.4546 501.399 58.7008 502.186 57.1808C505.889 55.7054 510.846 54.7915 512.106 54.5735C515.72 58.0162 519.9 58.9348 521.635 58.9348C522.941 58.9348 526 58.9348 526 55.7902C526 52.8701 522.257 51.834 519.052 51.834ZM518.801 53.8984C521.617 53.8984 522.361 54.8298 522.361 55.3223C522.361 55.6313 522.244 56.6395 520.735 56.6395C519.381 56.6395 517.044 55.8571 514.744 54.1597C515.703 54.0336 517.122 53.8984 518.801 53.8984ZM504.996 32.5465C505.253 32.5465 505.422 32.629 505.561 32.8223C506.371 33.9463 505.718 37.6188 504.923 40.4927C504.156 38.0285 503.58 34.2473 504.39 32.9171C504.549 32.6574 504.73 32.5465 504.996 32.5465ZM503.628 54.5441C504.648 52.4842 505.791 49.4823 506.413 47.7843C507.659 49.8694 509.334 51.8052 510.303 52.8547C507.286 53.4908 505.004 54.1261 503.628 54.5441ZM490.025 64.8564C489.958 64.7769 489.948 64.6088 489.999 64.4072C490.105 63.9846 490.916 61.8902 496.784 59.2655C495.944 60.5889 494.63 62.4799 493.187 63.8925C492.172 64.8432 491.381 65.3252 490.837 65.3252C490.642 65.3252 490.374 65.272 490.025 64.8564Z" fill="#DA143A"/>
</g>
<rect x="435" y="140" width="71" height="71" rx="35.5" fill="#EEEEEE"/>
<path d="M471.142 177.772C469.661 180.831 467.632 184.973 466.625 186.841C465.65 188.542 464.841 188.315 464.2 186.887C461.973 181.629 457.402 172.409 455.252 167.239C454.855 166.288 454.554 165.677 454.272 165.436C453.985 165.198 453.395 165.056 452.496 165.007C452.163 164.969 452 164.888 452 164.755V164.035L452.082 163.963C453.545 163.956 460.634 163.963 460.634 163.963L460.715 164.035V164.722C460.715 164.91 460.596 165.001 460.358 165.001L459.465 165.05C458.698 165.096 458.314 165.309 458.314 165.74C458.314 165.954 458.398 166.262 458.577 166.692C460.29 170.881 466.206 183.35 466.206 183.35L466.421 183.423L470.238 175.807L469.475 174.117L466.85 168.949C466.85 168.949 466.347 167.914 466.172 167.569C465.02 165.284 465.045 165.165 463.881 165.008C463.554 164.972 463.386 164.929 463.386 164.773V164.032L463.481 163.96H470.276L470.455 164.019V164.733C470.455 164.899 470.335 164.97 470.096 164.97L469.608 165.045C468.354 165.141 468.562 165.648 469.393 167.296L471.898 172.445L474.681 166.897C475.145 165.884 475.05 165.629 474.857 165.398C474.746 165.265 474.374 165.05 473.571 165.018L473.253 164.985C473.171 164.985 473.098 164.961 473.024 164.904C472.952 164.855 472.917 164.784 472.917 164.7V164.024L473.014 163.952C474.988 163.94 479.415 163.952 479.415 163.952L479.509 164.024V164.714C479.509 164.906 479.415 164.996 479.203 164.996C478.18 165.043 477.965 165.146 477.584 165.691C477.394 165.985 476.99 166.623 476.561 167.336L472.917 174.102L472.815 174.315L477.235 183.359L477.504 183.435L484.465 166.908C484.708 166.24 484.669 165.765 484.363 165.491C484.051 165.219 483.816 165.059 483.006 165.024L482.341 164.999C482.245 164.999 482.175 164.977 482.101 164.928C482.033 164.882 481.987 164.809 481.987 164.739V164.049L482.08 163.978H489.935L490 164.049V164.741C490 164.929 489.883 165.026 489.669 165.026C488.643 165.073 487.885 165.311 487.384 165.692C486.887 166.096 486.502 166.668 486.219 167.382C486.219 167.382 479.818 182.04 477.628 186.919C476.797 188.513 475.961 188.371 475.248 186.87C474.344 185.015 472.441 180.875 471.059 177.829L471.142 177.772Z" fill="black"/>
<g clip-path="url(#clip4_423_578)" filter="url(#filter2_i_423_578)">
<path d="M359 304.617C359 318.388 370.04 329.589 383.783 329.917V329.932C370.246 330.255 359.332 341.128 359.008 354.615H358.993C358.669 341.128 347.755 330.255 334.218 329.932V329.917C347.961 329.589 359 318.388 359 304.617C359 304.411 358.998 304.205 358.993 304H359.008C359.003 304.205 359 304.411 359 304.617Z" fill="#2E6DEA"/>
<path d="M359 304.617C359 318.388 370.04 329.589 383.783 329.917V329.932C370.246 330.255 359.332 341.128 359.008 354.615H358.993C358.669 341.128 347.755 330.255 334.218 329.932V329.917C347.961 329.589 359 318.388 359 304.617C359 304.411 358.998 304.205 358.993 304H359.008C359.003 304.205 359 304.411 359 304.617Z" fill="black" fill-opacity="0.2"/>
<path d="M395.348 346.796C395.901 346.796 396.452 346.806 397 346.825V365.726C379.663 365.726 365.609 379.728 365.609 397H352.391C352.391 379.728 338.337 365.726 321 365.726V346.825C321.548 346.806 322.099 346.796 322.652 346.796C337.958 346.796 351.392 354.389 359 365.819C366.608 354.389 380.042 346.796 395.348 346.796Z" fill="#2E6DEA"/>
<path d="M395.348 346.796C395.901 346.796 396.452 346.806 397 346.825V365.726C379.663 365.726 365.609 379.728 365.609 397H352.391C352.391 379.728 338.337 365.726 321 365.726V346.825C321.548 346.806 322.099 346.796 322.652 346.796C337.958 346.796 351.392 354.389 359 365.819C366.608 354.389 380.042 346.796 395.348 346.796Z" fill="black" fill-opacity="0.2"/>
</g>
</g>
<defs>
<filter id="filter0_d_423_578" x="-57" y="-30" width="808" height="417" filterUnits="userSpaceOnUse" color-interpolation-filters="sRGB">
<feFlood flood-opacity="0" result="BackgroundImageFix"/>
<feColorMatrix in="SourceAlpha" type="matrix" values="0 0 0 0 0 0 0 0 0 0 0 0 0 0 0 0 0 0 127 0" result="hardAlpha"/>
<feOffset dy="3"/>
<feGaussianBlur stdDeviation="16.5"/>
<feComposite in2="hardAlpha" operator="out"/>
<feColorMatrix type="matrix" values="0 0 0 0 0 0 0 0 0 0 0 0 0 0 0 0 0 0 0.11 0"/>
<feBlend mode="normal" in2="BackgroundImageFix" result="effect1_dropShadow_423_578"/>
<feBlend mode="normal" in="SourceGraphic" in2="effect1_dropShadow_423_578" result="shape"/>
</filter>
<filter id="filter1_dii_423_578" x="263.1" y="254" width="190.8" height="198.9" filterUnits="userSpaceOnUse" color-interpolation-filters="sRGB">
<feFlood flood-opacity="0" result="BackgroundImageFix"/>
<feColorMatrix in="SourceAlpha" type="matrix" values="0 0 0 0 0 0 0 0 0 0 0 0 0 0 0 0 0 0 127 0" result="hardAlpha"/>
<feOffset dy="4"/>
<feGaussianBlur stdDeviation="4.45"/>
<feComposite in2="hardAlpha" operator="out"/>
<feColorMatrix type="matrix" values="0 0 0 0 0 0 0 0 0 0 0 0 0 0 0 0 0 0 0.25 0"/>
<feBlend mode="normal" in2="BackgroundImageFix" result="effect1_dropShadow_423_578"/>
<feBlend mode="normal" in="SourceGraphic" in2="effect1_dropShadow_423_578" result="shape"/>
<feColorMatrix in="SourceAlpha" type="matrix" values="0 0 0 0 0 0 0 0 0 0 0 0 0 0 0 0 0 0 127 0" result="hardAlpha"/>
<feOffset dy="-13"/>
<feGaussianBlur stdDeviation="19.05"/>
<feComposite in2="hardAlpha" operator="arithmetic" k2="-1" k3="1"/>
<feColorMatrix type="matrix" values="0 0 0 0 0 0 0 0 0 0 0 0 0 0 0 0 0 0 0.17 0"/>
<feBlend mode="normal" in2="shape" result="effect2_innerShadow_423_578"/>
<feColorMatrix in="SourceAlpha" type="matrix" values="0 0 0 0 0 0 0 0 0 0 0 0 0 0 0 0 0 0 127 0" result="hardAlpha"/>
<feOffset dy="12"/>
<feGaussianBlur stdDeviation="4.6"/>
<feComposite in2="hardAlpha" operator="arithmetic" k2="-1" k3="1"/>
<feColorMatrix type="matrix" values="0 0 0 0 0.953106 0 0 0 0 0.953106 0 0 0 0 0.953106 0 0 0 0.25 0"/>
<feBlend mode="normal" in2="effect2_innerShadow_423_578" result="effect3_innerShadow_423_578"/>
</filter>
<filter id="filter2_i_423_578" x="318" y="303" width="79" height="94" filterUnits="userSpaceOnUse" color-interpolation-filters="sRGB">
<feFlood flood-opacity="0" result="BackgroundImageFix"/>
<feBlend mode="normal" in="SourceGraphic" in2="BackgroundImageFix" result="shape"/>
<feColorMatrix in="SourceAlpha" type="matrix" values="0 0 0 0 0 0 0 0 0 0 0 0 0 0 0 0 0 0 127 0" result="hardAlpha"/>
<feOffset dx="-3" dy="-1"/>
<feGaussianBlur stdDeviation="4.95"/>
<feComposite in2="hardAlpha" operator="arithmetic" k2="-1" k3="1"/>
<feColorMatrix type="matrix" values="0 0 0 0 0 0 0 0 0 0 0 0 0 0 0 0 0 0 0.25 0"/>
<feBlend mode="normal" in2="shape" result="effect1_innerShadow_423_578"/>
</filter>
<clipPath id="clip0_423_578">
<path d="M0 8C0 3.58173 3.58172 0 8 0H710C714.418 0 718 3.58172 718 8V508C718 512.418 714.418 516 710 516H8.00001C3.58173 516 0 512.418 0 508V8Z" fill="white"/>
</clipPath>
<clipPath id="clip1_423_578">
<rect width="38" height="38" fill="white" transform="translate(364 80)"/>
</clipPath>
<clipPath id="clip2_423_578">
<rect width="38" height="38" fill="white" transform="translate(257 17)"/>
</clipPath>
<clipPath id="clip3_423_578">
<rect width="38" height="38" fill="white" transform="translate(488 30)"/>
</clipPath>
<clipPath id="clip4_423_578">
<rect width="76" height="93" fill="white" transform="translate(321 304)"/>
</clipPath>
</defs>
</svg>
