<svg width="718" height="516" viewBox="0 0 718 516" fill="none" xmlns="http://www.w3.org/2000/svg">
<g clip-path="url(#clip0_436_107)">
<path d="M0 8C0 3.58173 3.58172 0 8 0H710C714.418 0 718 3.58172 718 8V508C718 512.418 714.418 516 710 516H8.00001C3.58173 516 0 512.418 0 508V8Z" fill="#F7F7F7"/>
<g filter="url(#filter0_d_436_107)">
<path d="M77 96C77 87.1635 84.1634 80 93 80H625C633.837 80 641 87.1634 641 96V516H77V96Z" fill="white" shape-rendering="crispEdges"/>
<rect x="123" y="144" width="348" height="26" rx="13" fill="#EEEEEE"/>
<rect x="123" y="189" width="429" height="26" rx="13" fill="#EEEEEE"/>
<rect x="123" y="455" width="460" height="26" rx="13" fill="#EEEEEE"/>
<rect x="123" y="234" width="402" height="24" rx="12" fill="#EEEEEE"/>
<rect x="123" y="277" width="198" height="24" rx="12" fill="#EEEEEE"/>
<rect x="123" y="320" width="139" height="26" rx="13" fill="#EEEEEE"/>
<rect x="123" y="365" width="153" height="26" rx="13" fill="#EEEEEE"/>
<rect x="123" y="410" width="198" height="26" rx="13" fill="#EEEEEE"/>
<rect x="347" y="277" width="236" height="159" rx="31" fill="#EEEEEE"/>
<rect x="77" y="326" width="564" height="192" fill="#2E6DEA" fill-opacity="0.25"/>
<rect x="458" y="313" width="187" height="13" rx="6.5" fill="#2E6DEA"/>
<rect x="73" y="313" width="187" height="13" rx="6.5" fill="#2E6DEA"/>
<g filter="url(#filter1_d_436_107)">
<rect x="245" y="289" width="228" height="63" rx="31.5" fill="#2E6DEA"/>
<path d="M276.538 331V313.97H271.286V311.63H284.286V313.97H279.112V331H276.538ZM284.907 331V316.986H287.273V319.56L287.013 319.196C287.342 318.399 287.845 317.809 288.521 317.428C289.197 317.029 290.02 316.83 290.991 316.83H291.849V319.118H290.627C289.639 319.118 288.842 319.43 288.235 320.054C287.628 320.661 287.325 321.527 287.325 322.654V331H284.907ZM298.105 331.312C297.186 331.312 296.372 331.147 295.661 330.818C294.968 330.471 294.422 330.003 294.023 329.414C293.624 328.807 293.425 328.114 293.425 327.334C293.425 326.589 293.581 325.921 293.893 325.332C294.222 324.725 294.725 324.214 295.401 323.798C296.094 323.382 296.961 323.087 298.001 322.914L303.201 322.056V324.084L298.547 324.864C297.646 325.02 296.987 325.306 296.571 325.722C296.172 326.138 295.973 326.649 295.973 327.256C295.973 327.828 296.198 328.305 296.649 328.686C297.117 329.067 297.698 329.258 298.391 329.258C299.275 329.258 300.038 329.076 300.679 328.712C301.338 328.331 301.849 327.819 302.213 327.178C302.594 326.537 302.785 325.826 302.785 325.046V321.484C302.785 320.721 302.499 320.106 301.927 319.638C301.372 319.153 300.636 318.91 299.717 318.91C298.92 318.91 298.209 319.118 297.585 319.534C296.978 319.933 296.528 320.47 296.233 321.146L294.127 320.054C294.387 319.413 294.803 318.841 295.375 318.338C295.947 317.818 296.614 317.411 297.377 317.116C298.14 316.821 298.937 316.674 299.769 316.674C300.844 316.674 301.788 316.882 302.603 317.298C303.418 317.697 304.05 318.26 304.501 318.988C304.969 319.699 305.203 320.531 305.203 321.484V331H302.837V328.348L303.279 328.504C302.984 329.059 302.586 329.544 302.083 329.96C301.58 330.376 300.991 330.705 300.315 330.948C299.639 331.191 298.902 331.312 298.105 331.312ZM308.952 331V316.986H311.318V319.716L310.928 319.482C311.275 318.598 311.829 317.913 312.592 317.428C313.372 316.925 314.282 316.674 315.322 316.674C316.327 316.674 317.22 316.899 318 317.35C318.797 317.801 319.421 318.425 319.872 319.222C320.34 320.019 320.574 320.921 320.574 321.926V331H318.13V322.706C318.13 321.926 317.991 321.267 317.714 320.73C317.437 320.193 317.038 319.777 316.518 319.482C316.015 319.17 315.435 319.014 314.776 319.014C314.117 319.014 313.528 319.17 313.008 319.482C312.505 319.777 312.107 320.201 311.812 320.756C311.517 321.293 311.37 321.943 311.37 322.706V331H308.952ZM329.052 331.312C327.648 331.312 326.426 330.965 325.386 330.272C324.346 329.579 323.609 328.643 323.176 327.464L325.1 326.528C325.499 327.36 326.045 328.019 326.738 328.504C327.431 328.989 328.203 329.232 329.052 329.232C329.815 329.232 330.447 329.05 330.95 328.686C331.453 328.322 331.704 327.845 331.704 327.256C331.704 326.84 331.583 326.511 331.34 326.268C331.115 326.008 330.837 325.809 330.508 325.67C330.179 325.514 329.875 325.401 329.598 325.332L327.492 324.734C326.227 324.37 325.299 323.85 324.71 323.174C324.138 322.498 323.852 321.709 323.852 320.808C323.852 319.976 324.06 319.257 324.476 318.65C324.909 318.026 325.49 317.541 326.218 317.194C326.963 316.847 327.795 316.674 328.714 316.674C329.945 316.674 331.045 316.986 332.016 317.61C333.004 318.234 333.706 319.109 334.122 320.236L332.146 321.146C331.834 320.418 331.366 319.846 330.742 319.43C330.118 318.997 329.416 318.78 328.636 318.78C327.925 318.78 327.362 318.962 326.946 319.326C326.53 319.673 326.322 320.115 326.322 320.652C326.322 321.051 326.426 321.38 326.634 321.64C326.842 321.883 327.093 322.073 327.388 322.212C327.683 322.333 327.969 322.437 328.246 322.524L330.534 323.2C331.678 323.529 332.562 324.041 333.186 324.734C333.827 325.427 334.148 326.259 334.148 327.23C334.148 328.01 333.931 328.712 333.498 329.336C333.065 329.96 332.467 330.445 331.704 330.792C330.941 331.139 330.057 331.312 329.052 331.312ZM343.813 331.312C342.444 331.312 341.222 330.991 340.147 330.35C339.09 329.709 338.258 328.833 337.651 327.724C337.045 326.615 336.741 325.367 336.741 323.98C336.741 322.576 337.045 321.328 337.651 320.236C338.258 319.144 339.09 318.277 340.147 317.636C341.222 316.995 342.444 316.674 343.813 316.674C344.732 316.674 345.59 316.839 346.387 317.168C347.185 317.497 347.887 317.939 348.493 318.494C349.1 319.049 349.542 319.699 349.819 320.444L347.661 321.484C347.332 320.756 346.829 320.167 346.153 319.716C345.477 319.248 344.697 319.014 343.813 319.014C342.964 319.014 342.193 319.231 341.499 319.664C340.823 320.097 340.286 320.687 339.887 321.432C339.489 322.177 339.289 323.035 339.289 324.006C339.289 324.942 339.489 325.791 339.887 326.554C340.286 327.299 340.823 327.889 341.499 328.322C342.193 328.755 342.964 328.972 343.813 328.972C344.697 328.972 345.477 328.747 346.153 328.296C346.829 327.828 347.332 327.213 347.661 326.45L349.819 327.542C349.542 328.27 349.1 328.92 348.493 329.492C347.887 330.047 347.185 330.489 346.387 330.818C345.59 331.147 344.732 331.312 343.813 331.312ZM352.979 331V316.986H355.345V319.56L355.085 319.196C355.415 318.399 355.917 317.809 356.593 317.428C357.269 317.029 358.093 316.83 359.063 316.83H359.921V319.118H358.699C357.711 319.118 356.914 319.43 356.307 320.054C355.701 320.661 355.397 321.527 355.397 322.654V331H352.979ZM362.069 331V316.986H364.487V331H362.069ZM362.069 314.75V311.63H364.487V314.75H362.069ZM375.493 331.312C374.367 331.312 373.335 331.061 372.399 330.558C371.481 330.055 370.77 329.345 370.267 328.426L370.605 328.01V331H368.239V311.318H370.657V320.002L370.293 319.404C370.813 318.572 371.524 317.913 372.425 317.428C373.327 316.925 374.358 316.674 375.519 316.674C376.837 316.674 378.015 316.995 379.055 317.636C380.113 318.277 380.945 319.153 381.551 320.262C382.158 321.354 382.461 322.602 382.461 324.006C382.461 325.375 382.158 326.615 381.551 327.724C380.945 328.833 380.113 329.709 379.055 330.35C378.015 330.991 376.828 331.312 375.493 331.312ZM375.311 328.972C376.195 328.972 376.984 328.755 377.677 328.322C378.371 327.889 378.908 327.299 379.289 326.554C379.688 325.791 379.887 324.942 379.887 324.006C379.887 323.035 379.688 322.186 379.289 321.458C378.908 320.713 378.371 320.123 377.677 319.69C376.984 319.239 376.195 319.014 375.311 319.014C374.427 319.014 373.63 319.231 372.919 319.664C372.226 320.097 371.671 320.695 371.255 321.458C370.857 322.203 370.657 323.053 370.657 324.006C370.657 324.942 370.857 325.791 371.255 326.554C371.671 327.299 372.226 327.889 372.919 328.322C373.63 328.755 374.427 328.972 375.311 328.972ZM385.632 331V316.986H388.05V331H385.632ZM385.632 314.75V311.63H388.05V314.75H385.632ZM391.802 331V316.986H394.168V319.716L393.778 319.482C394.124 318.598 394.679 317.913 395.442 317.428C396.222 316.925 397.132 316.674 398.172 316.674C399.177 316.674 400.07 316.899 400.85 317.35C401.647 317.801 402.271 318.425 402.722 319.222C403.19 320.019 403.424 320.921 403.424 321.926V331H400.98V322.706C400.98 321.926 400.841 321.267 400.564 320.73C400.286 320.193 399.888 319.777 399.368 319.482C398.865 319.17 398.284 319.014 397.626 319.014C396.967 319.014 396.378 319.17 395.858 319.482C395.355 319.777 394.956 320.201 394.662 320.756C394.367 321.293 394.22 321.943 394.22 322.706V331H391.802ZM413.566 336.72C412.578 336.72 411.659 336.564 410.81 336.252C409.978 335.94 409.258 335.507 408.652 334.952C408.062 334.415 407.612 333.782 407.3 333.054L409.562 332.014C409.804 332.673 410.264 333.227 410.94 333.678C411.633 334.146 412.5 334.38 413.54 334.38C414.337 334.38 415.056 334.224 415.698 333.912C416.356 333.617 416.876 333.167 417.258 332.56C417.639 331.971 417.83 331.251 417.83 330.402V327.256L418.272 327.724C417.786 328.677 417.084 329.405 416.166 329.908C415.264 330.411 414.268 330.662 413.176 330.662C411.858 330.662 410.68 330.359 409.64 329.752C408.6 329.128 407.785 328.287 407.196 327.23C406.606 326.155 406.312 324.968 406.312 323.668C406.312 322.351 406.606 321.163 407.196 320.106C407.785 319.049 408.591 318.217 409.614 317.61C410.654 316.986 411.832 316.674 413.15 316.674C414.242 316.674 415.23 316.925 416.114 317.428C417.015 317.913 417.734 318.589 418.272 319.456L417.908 320.106V316.986H420.274V330.402C420.274 331.615 419.988 332.699 419.416 333.652C418.844 334.605 418.046 335.351 417.024 335.888C416.018 336.443 414.866 336.72 413.566 336.72ZM413.384 328.322C414.216 328.322 414.961 328.114 415.62 327.698C416.296 327.282 416.833 326.727 417.232 326.034C417.63 325.323 417.83 324.535 417.83 323.668C417.83 322.819 417.63 322.039 417.232 321.328C416.833 320.617 416.296 320.054 415.62 319.638C414.961 319.222 414.216 319.014 413.384 319.014C412.534 319.014 411.763 319.222 411.07 319.638C410.376 320.054 409.83 320.617 409.432 321.328C409.05 322.021 408.86 322.801 408.86 323.668C408.86 324.535 409.05 325.323 409.432 326.034C409.83 326.727 410.368 327.282 411.044 327.698C411.737 328.114 412.517 328.322 413.384 328.322ZM425.01 331V327.88H427.532V331H425.01ZM433.262 331V327.88H435.784V331H433.262ZM441.514 331V327.88H444.036V331H441.514Z" fill="white"/>
</g>
</g>
</g>
<defs>
<filter id="filter0_d_436_107" x="42.6" y="52.6" width="632.8" height="498.8" filterUnits="userSpaceOnUse" color-interpolation-filters="sRGB">
<feFlood flood-opacity="0" result="BackgroundImageFix"/>
<feColorMatrix in="SourceAlpha" type="matrix" values="0 0 0 0 0 0 0 0 0 0 0 0 0 0 0 0 0 0 127 0" result="hardAlpha"/>
<feOffset dy="3"/>
<feGaussianBlur stdDeviation="15.2"/>
<feComposite in2="hardAlpha" operator="out"/>
<feColorMatrix type="matrix" values="0 0 0 0 0 0 0 0 0 0 0 0 0 0 0 0 0 0 0.12 0"/>
<feBlend mode="normal" in2="BackgroundImageFix" result="effect1_dropShadow_436_107"/>
<feBlend mode="normal" in="SourceGraphic" in2="effect1_dropShadow_436_107" result="shape"/>
</filter>
<filter id="filter1_d_436_107" x="229.6" y="277.6" width="258.8" height="93.8" filterUnits="userSpaceOnUse" color-interpolation-filters="sRGB">
<feFlood flood-opacity="0" result="BackgroundImageFix"/>
<feColorMatrix in="SourceAlpha" type="matrix" values="0 0 0 0 0 0 0 0 0 0 0 0 0 0 0 0 0 0 127 0" result="hardAlpha"/>
<feOffset dy="4"/>
<feGaussianBlur stdDeviation="7.7"/>
<feComposite in2="hardAlpha" operator="out"/>
<feColorMatrix type="matrix" values="0 0 0 0 0 0 0 0 0 0 0 0 0 0 0 0 0 0 0.25 0"/>
<feBlend mode="normal" in2="BackgroundImageFix" result="effect1_dropShadow_436_107"/>
<feBlend mode="normal" in="SourceGraphic" in2="effect1_dropShadow_436_107" result="shape"/>
</filter>
<clipPath id="clip0_436_107">
<path d="M0 8C0 3.58173 3.58172 0 8 0H710C714.418 0 718 3.58172 718 8V508C718 512.418 714.418 516 710 516H8.00001C3.58173 516 0 512.418 0 508V8Z" fill="white"/>
</clipPath>
</defs>
</svg>
