<svg width="718" height="516" viewBox="0 0 718 516" fill="none" xmlns="http://www.w3.org/2000/svg">
<g clip-path="url(#clip0_436_123)">
<path d="M0 8C0 3.58173 3.58172 0 8 0H710C714.418 0 718 3.58172 718 8V508C718 512.418 714.418 516 710 516H8.00001C3.58173 516 0 512.418 0 508V8Z" fill="#F7F7F7"/>
<g filter="url(#filter0_d_436_123)">
<path d="M77 96C77 87.1635 84.1634 80 93 80H625C633.837 80 641 87.1634 641 96V516H77V96Z" fill="white" shape-rendering="crispEdges"/>
<rect x="123" y="144" width="310" height="26" rx="13" fill="#EEEEEE"/>
<rect x="123" y="189" width="272" height="26" rx="13" fill="#EEEEEE"/>
<rect x="123" y="455" width="460" height="26" rx="13" fill="#EEEEEE"/>
<rect x="123" y="234" width="339" height="24" rx="12" fill="#EEEEEE"/>
<rect x="123" y="277" width="357" height="24" rx="12" fill="#EEEEEE"/>
<rect x="359" y="320" width="209" height="26" rx="13" fill="#EEEEEE"/>
<rect x="123" y="320" width="209" height="116" rx="19" fill="#EEEEEE"/>
<rect x="359" y="365" width="177" height="26" rx="13" fill="#EEEEEE"/>
<rect x="359" y="410" width="224" height="26" rx="13" fill="#EEEEEE"/>
<g filter="url(#filter1_d_436_123)">
<circle cx="537.5" cy="191.5" r="59" stroke="#2E6DEA" stroke-width="15" shape-rendering="crispEdges"/>
</g>
<path d="M509.542 216.928L510.126 174.375L519.152 171.4L544.928 205.262L537.338 207.764L531.915 200.455L517.145 205.324L517.081 214.442L509.542 216.928ZM517.116 198.51L527.886 194.96L515.254 178.029L517.203 177.387L517.116 198.51ZM559.54 200.445L556.26 190.495L546.311 193.775L544.4 187.98L554.35 184.7L551.086 174.802L556.882 172.892L560.145 182.79L570.043 179.527L571.953 185.322L562.055 188.585L565.335 198.534L559.54 200.445Z" fill="#2E6DEA"/>
</g>
</g>
<defs>
<filter id="filter0_d_436_123" x="46.6" y="52.6" width="624.8" height="496.8" filterUnits="userSpaceOnUse" color-interpolation-filters="sRGB">
<feFlood flood-opacity="0" result="BackgroundImageFix"/>
<feColorMatrix in="SourceAlpha" type="matrix" values="0 0 0 0 0 0 0 0 0 0 0 0 0 0 0 0 0 0 127 0" result="hardAlpha"/>
<feOffset dy="3"/>
<feGaussianBlur stdDeviation="15.2"/>
<feComposite in2="hardAlpha" operator="out"/>
<feColorMatrix type="matrix" values="0 0 0 0 0 0 0 0 0 0 0 0 0 0 0 0 0 0 0.12 0"/>
<feBlend mode="normal" in2="BackgroundImageFix" result="effect1_dropShadow_436_123"/>
<feBlend mode="normal" in="SourceGraphic" in2="effect1_dropShadow_436_123" result="shape"/>
</filter>
<filter id="filter1_d_436_123" x="466.2" y="124.2" width="142.6" height="142.6" filterUnits="userSpaceOnUse" color-interpolation-filters="sRGB">
<feFlood flood-opacity="0" result="BackgroundImageFix"/>
<feColorMatrix in="SourceAlpha" type="matrix" values="0 0 0 0 0 0 0 0 0 0 0 0 0 0 0 0 0 0 127 0" result="hardAlpha"/>
<feOffset dy="4"/>
<feGaussianBlur stdDeviation="2.4"/>
<feComposite in2="hardAlpha" operator="out"/>
<feColorMatrix type="matrix" values="0 0 0 0 0 0 0 0 0 0 0 0 0 0 0 0 0 0 0.08 0"/>
<feBlend mode="normal" in2="BackgroundImageFix" result="effect1_dropShadow_436_123"/>
<feBlend mode="normal" in="SourceGraphic" in2="effect1_dropShadow_436_123" result="shape"/>
</filter>
<clipPath id="clip0_436_123">
<path d="M0 8C0 3.58173 3.58172 0 8 0H710C714.418 0 718 3.58172 718 8V508C718 512.418 714.418 516 710 516H8.00001C3.58173 516 0 512.418 0 508V8Z" fill="white"/>
</clipPath>
</defs>
</svg>
